<svg id="Layer_1" data-name="Layer 1" xmlns="http://www.w3.org/2000/svg" width="189.79" height="39.71" viewBox="0 0 189.79 39.71"><defs><style>.cls-1{fill:#fff;}</style></defs><title>logo</title><path class="cls-1" d="M1755.56,95.83h-12.31V66h6.56V92h5.75v3.83Z" transform="translate(-1694.21 -61.21)"/><path class="cls-1" d="M1770.2,85.58h-8v5.65a1,1,0,1,0,2,0V86.35h5.94v4.92q0,4.9-7,4.9t-6.92-5.1V76.58q0-5.1,6.92-5.1t7,4.89v9.21ZM1764.27,82V76.42a1,1,0,1,0-2,0V82h2Z" transform="translate(-1694.21 -61.21)"/><path class="cls-1" d="M1786.67,71.65l-4.34,24.18h-7.16l-4.38-24.18h6l2.05,14.29,2-14.29h5.86Z" transform="translate(-1694.21 -61.21)"/><path class="cls-1" d="M1801.17,85.58h-8v5.65a1,1,0,1,0,2,0V86.35h5.94v4.92q0,4.9-7,4.9t-6.92-5.1V76.58q0-5.1,6.92-5.1t7,4.89v9.21ZM1795.23,82V76.42a1,1,0,1,0-2,0V82h2Z" transform="translate(-1694.21 -61.21)"/><path class="cls-1" d="M1814.72,95.83h-12.31V66H1809V92h5.75v3.83Z" transform="translate(-1694.21 -61.21)"/><path class="cls-1" d="M1839.6,95.83h-6.75l-4.46-15.91V95.83h-5.48V66h7.46l3.75,13.62V66h5.48V95.83Z" transform="translate(-1694.21 -61.21)"/><path class="cls-1" d="M1855.24,85.58h-8v5.65a1,1,0,1,0,2,0V86.35h5.94v4.92q0,4.9-7,4.9t-6.92-5.1V76.58q0-5.1,6.92-5.1t7,4.89v9.21ZM1849.3,82V76.42a1,1,0,1,0-2,0V82h2Z" transform="translate(-1694.21 -61.21)"/><path class="cls-1" d="M1872.48,95.83h-6.54l-2-6.56L1862,95.83H1856L1860.69,83l-4.52-11.39h6.27l2,6.27,1.6-6.27h5.64l-4,11.69Z" transform="translate(-1694.21 -61.21)"/><path class="cls-1" d="M1884,95.83h-3.75q-4,0-4.81-1.21T1874.65,90V75.23H1872V71.65h2.65V66.77h5.94v4.87h3.21v3.58h-3.21V89.94a1.5,1.5,0,0,0,.64,1.43,6.66,6.66,0,0,0,2.78.36v4.1Z" transform="translate(-1694.21 -61.21)"/><path class="cls-1" d="M1714.06,100.92a19.85,19.85,0,1,1,19.85-19.85A19.88,19.88,0,0,1,1714.06,100.92Zm0-36.49a16.64,16.64,0,1,0,16.64,16.64A16.65,16.65,0,0,0,1714.06,64.43Z" transform="translate(-1694.21 -61.21)"/></svg>